<svg width="35" height="35" viewBox="0 0 35 35" fill="none" xmlns="http://www.w3.org/2000/svg">
<path fill-rule="evenodd" clip-rule="evenodd" d="M12.6394 1.8229C11.375 1.82196 10.1431 2.22355 9.12217 2.96948C8.10125 3.71542 7.34427 4.76698 6.9609 5.97186C6.57752 7.17673 6.58764 8.47237 6.98979 9.67112C7.39195 10.8699 8.16525 11.9095 9.19771 12.6394C8.42036 13.1892 7.78641 13.9177 7.34915 14.7635C6.9119 15.6094 6.68413 16.5478 6.685 17.5C6.685 19.5067 7.67813 21.2829 9.20063 22.3606C8.36657 22.951 7.69849 23.7461 7.26066 24.6695C6.82284 25.5928 6.63002 26.6133 6.70074 27.6327C6.77146 28.6521 7.10334 29.6362 7.66447 30.4902C8.22559 31.3442 8.99706 32.0395 9.90466 32.5091C10.8122 32.9787 11.8254 33.2067 12.8467 33.1714C13.8679 33.1361 14.8629 32.8385 15.7359 32.3074C16.6089 31.7762 17.3305 31.0293 17.8312 30.1385C18.332 29.2478 18.5951 28.2431 18.5952 27.2212V22.1112C19.2147 22.6131 19.9286 22.9854 20.6947 23.2062C21.4607 23.427 22.2634 23.4916 23.0549 23.3964C23.8464 23.3011 24.6108 23.0479 25.3026 22.6517C25.9944 22.2555 26.5996 21.7244 27.0823 21.0899C27.565 20.4554 27.9154 19.7304 28.1127 18.958C28.3099 18.1855 28.3501 17.3813 28.2307 16.593C28.1113 15.8048 27.8349 15.0485 27.4177 14.3691C27.0006 13.6897 26.4512 13.101 25.8023 12.6379C26.8348 11.908 27.6081 10.8684 28.0102 9.66966C28.4124 8.47092 28.4225 7.17528 28.0391 5.9704C27.6557 4.76552 26.8988 3.71396 25.8778 2.96802C24.8569 2.22209 23.625 1.82051 22.3606 1.82144H12.6423L12.6394 1.8229ZM16.4063 21.2669H12.6394C12.1447 21.2669 11.6549 21.1694 11.1979 20.9801C10.7408 20.7908 10.3256 20.5134 9.97579 20.1636C9.62601 19.8138 9.34854 19.3985 9.15924 18.9415C8.96993 18.4845 8.8725 17.9947 8.8725 17.5C8.8725 17.0053 8.96993 16.5155 9.15924 16.0585C9.34854 15.6014 9.62601 15.1862 9.97579 14.8364C10.3256 14.4866 10.7408 14.2091 11.1979 14.0198C11.6549 13.8305 12.1447 13.7331 12.6394 13.7331H16.4063V21.2669ZM12.6394 11.5456H16.4063V4.0104H12.6394C11.6401 4.0104 10.6818 4.40734 9.97528 5.11391C9.26871 5.82047 8.87177 6.77878 8.87177 7.77801C8.87177 8.77724 9.26871 9.73554 9.97528 10.4421C10.6818 11.1487 11.6401 11.5456 12.6394 11.5456ZM26.129 7.77728C26.1293 8.77581 25.7333 9.73364 25.0277 10.4403C24.3222 11.1469 23.365 11.5445 22.3665 11.5456H18.5938V4.0104H22.3621C22.8568 4.0104 23.3466 4.10783 23.8036 4.29714C24.2606 4.48644 24.6759 4.76391 25.0257 5.11369C25.3755 5.46348 25.6529 5.87874 25.8422 6.33576C26.0315 6.79277 26.129 7.2826 26.129 7.77728ZM18.5938 17.4956C18.5949 16.4981 18.9917 15.5418 19.697 14.8364C20.4024 14.131 21.3587 13.7343 22.3563 13.7331H22.365C23.1096 13.734 23.8373 13.9555 24.4561 14.3698C25.0749 14.784 25.557 15.3724 25.8416 16.0605C26.1262 16.7486 26.2004 17.5056 26.0549 18.2359C25.9094 18.9662 25.5507 19.637 25.0242 20.1636C24.4977 20.6901 23.8269 21.0488 23.0966 21.1943C22.3663 21.3398 21.6093 21.2655 20.9211 20.981C20.233 20.6964 19.6446 20.2143 19.2304 19.5955C18.8162 18.9767 18.5946 18.249 18.5938 17.5044V17.4956ZM12.6394 23.4544C11.8944 23.4544 11.1662 23.6752 10.5468 24.0891C9.92734 24.5029 9.44453 25.0912 9.15938 25.7794C8.87423 26.4676 8.79955 27.2249 8.94477 27.9556C9.09 28.6862 9.44862 29.3574 9.97528 29.8843C10.5019 30.4112 11.173 30.77 11.9036 30.9156C12.6342 31.0611 13.3916 30.9867 14.0799 30.7018C14.7682 30.4169 15.3566 29.9343 15.7707 29.3151C16.1848 28.6958 16.406 27.9676 16.4063 27.2227V23.4544H12.6394Z" fill="#1E1E1E"/>
</svg>
