<svg width="35" height="35" viewBox="0 0 35 35" fill="none" xmlns="http://www.w3.org/2000/svg">
<g clip-path="url(#clip0_120_2)">
<path d="M15.0267 1.99266L1.99267 15.0243L3.64234 16.674L16.674 3.64232L15.0267 1.99266ZM1.99267 19.9733L15.0243 33.0073L16.674 31.3553L3.64234 18.3237L1.99267 19.9733ZM19.9757 33.005L33.0073 19.9757L31.3577 18.3237L18.326 31.3553L19.9757 33.005ZM33.0073 15.022L19.9757 1.99266L18.326 3.64232L31.3577 16.674L33.0073 15.0243V15.022ZM33.0073 19.9757C33.3326 19.6506 33.5906 19.2624 33.7666 18.8376C33.9426 18.4128 34.0333 17.9575 34.0333 17.4977C34.0333 17.0378 33.9426 16.5825 33.7666 16.1577C33.5906 15.733 33.3326 15.347 33.0073 15.022L31.3577 16.6717C31.4663 16.78 31.5525 16.9088 31.6113 17.0505C31.6701 17.1922 31.7004 17.3442 31.7004 17.4977C31.7004 17.6511 31.6701 17.8031 31.6113 17.9448C31.5525 18.0865 31.4663 18.2153 31.3577 18.3237L33.0073 19.9757ZM15.0243 33.0073C15.3494 33.3326 15.7376 33.5906 16.1624 33.7666C16.5872 33.9426 17.0425 34.0332 17.5023 34.0332C17.9622 34.0332 18.4175 33.9426 18.8422 33.7666C19.267 33.5906 19.653 33.3326 19.978 33.0073L18.326 31.3577C18.2176 31.4663 18.0912 31.5525 17.9495 31.6113C17.8077 31.6701 17.6558 31.7004 17.5023 31.7004C17.3489 31.7004 17.1969 31.6701 17.0552 31.6113C16.9135 31.5525 16.7847 31.4663 16.6763 31.3577L15.0243 33.0073ZM1.99267 15.0243C1.66743 15.3494 1.40942 15.7376 1.23339 16.1624C1.05736 16.5872 0.966751 17.0425 0.966751 17.5023C0.966751 17.9621 1.05736 18.4174 1.23339 18.8422C1.40942 19.267 1.66743 19.653 1.99267 19.978L3.64234 18.326C3.53369 18.2176 3.44749 18.0912 3.38867 17.9495C3.32986 17.8077 3.29959 17.6558 3.29959 17.5023C3.29959 17.3489 3.32986 17.1969 3.38867 17.0552C3.44749 16.9134 3.53369 16.7824 3.64234 16.674L1.99267 15.0243ZM16.674 3.64466C16.7824 3.53601 16.9111 3.44981 17.0529 3.39099C17.1946 3.33218 17.3465 3.3019 17.5 3.3019C17.6535 3.3019 17.8054 3.33218 17.9471 3.39099C18.0889 3.44981 18.2176 3.53601 18.326 3.64466L19.9757 1.99266C19.6506 1.66741 19.2624 1.4094 18.8376 1.23337C18.4128 1.05734 17.9575 0.966736 17.4977 0.966736C17.0379 0.966736 16.5825 1.05734 16.1578 1.23337C15.733 1.4094 15.347 1.66741 15.022 1.99266L16.6717 3.64232L16.674 3.64466ZM12.0073 6.66165L14.3407 8.99499L15.9927 7.34299L13.6593 5.00966L12.0073 6.66165ZM17.5 11.6667C17.1906 11.6667 16.8938 11.5437 16.675 11.3249C16.4563 11.1062 16.3333 10.8094 16.3333 10.5H14C14 11.4282 14.3688 12.3185 15.0251 12.9749C15.6815 13.6312 16.5717 14 17.5 14V11.6667ZM18.6667 10.5C18.6667 10.8094 18.5438 11.1062 18.325 11.3249C18.1062 11.5437 17.8094 11.6667 17.5 11.6667V14C18.4283 14 19.3185 13.6312 19.9749 12.9749C20.6313 12.3185 21 11.4282 21 10.5H18.6667ZM17.5 9.33332C17.8094 9.33332 18.1062 9.45624 18.325 9.67503C18.5438 9.89382 18.6667 10.1906 18.6667 10.5H21C21 9.57173 20.6313 8.68149 19.9749 8.02511C19.3185 7.36874 18.4283 6.99999 17.5 6.99999V9.33332ZM17.5 6.99999C16.5717 6.99999 15.6815 7.36874 15.0251 8.02511C14.3688 8.68149 14 9.57173 14 10.5H16.3333C16.3333 10.1906 16.4563 9.89382 16.675 9.67503C16.8938 9.45624 17.1906 9.33332 17.5 9.33332V6.99999ZM19.0073 13.6593L22.5073 17.1593L24.157 15.5073L20.657 12.0073L19.0073 13.6593ZM24.5 18.6667C24.1906 18.6667 23.8938 18.5437 23.675 18.3249C23.4563 18.1062 23.3333 17.8094 23.3333 17.5H21C21 18.4282 21.3688 19.3185 22.0251 19.9749C22.6815 20.6312 23.5717 21 24.5 21V18.6667ZM25.6667 17.5C25.6667 17.8094 25.5438 18.1062 25.325 18.3249C25.1062 18.5437 24.8094 18.6667 24.5 18.6667V21C25.4283 21 26.3185 20.6312 26.9749 19.9749C27.6313 19.3185 28 18.4282 28 17.5H25.6667ZM24.5 16.3333C24.8094 16.3333 25.1062 16.4562 25.325 16.675C25.5438 16.8938 25.6667 17.1906 25.6667 17.5H28C28 16.5717 27.6313 15.6815 26.9749 15.0251C26.3185 14.3687 25.4283 14 24.5 14V16.3333ZM24.5 14C23.5717 14 22.6815 14.3687 22.0251 15.0251C21.3688 15.6815 21 16.5717 21 17.5H23.3333C23.3333 17.1906 23.4563 16.8938 23.675 16.675C23.8938 16.4562 24.1906 16.3333 24.5 16.3333V14ZM16.3333 12.8333V22.1667H18.6667V12.8333H16.3333ZM17.5 25.6667C17.1906 25.6667 16.8938 25.5437 16.675 25.3249C16.4563 25.1062 16.3333 24.8094 16.3333 24.5H14C14 25.4282 14.3688 26.3185 15.0251 26.9749C15.6815 27.6312 16.5717 28 17.5 28V25.6667ZM18.6667 24.5C18.6667 24.8094 18.5438 25.1062 18.325 25.3249C18.1062 25.5437 17.8094 25.6667 17.5 25.6667V28C18.4283 28 19.3185 27.6312 19.9749 26.9749C20.6313 26.3185 21 25.4282 21 24.5H18.6667ZM17.5 23.3333C17.8094 23.3333 18.1062 23.4562 18.325 23.675C18.5438 23.8938 18.6667 24.1906 18.6667 24.5H21C21 23.5717 20.6313 22.6815 19.9749 22.0251C19.3185 21.3687 18.4283 21 17.5 21V23.3333ZM17.5 21C16.5717 21 15.6815 21.3687 15.0251 22.0251C14.3688 22.6815 14 23.5717 14 24.5H16.3333C16.3333 24.1906 16.4563 23.8938 16.675 23.675C16.8938 23.4562 17.1906 23.3333 17.5 23.3333V21Z" fill="#1E1E1E"/>
</g>
<defs>
<clipPath id="clip0_120_2">
<rect width="35" height="35" fill="white"/>
</clipPath>
</defs>
</svg>
