<svg width="35" height="35" viewBox="0 0 35 35" fill="none" xmlns="http://www.w3.org/2000/svg">
<g clip-path="url(#clip0_101_16)">
<path d="M17.5 1.16666L18.361 0.377995C18.2517 0.258446 18.1187 0.162972 17.9704 0.0976511C17.8222 0.0323306 17.662 -0.00140381 17.5 -0.00140381C17.338 -0.00140381 17.1778 0.0323306 17.0296 0.0976511C16.8813 0.162972 16.7483 0.258446 16.639 0.377995L17.5 1.16666ZM17.5 31.5L16.583 32.221C16.6922 32.3598 16.8314 32.472 16.9903 32.5492C17.1491 32.6263 17.3234 32.6664 17.5 32.6664C17.6766 32.6664 17.8509 32.6263 18.0097 32.5492C18.1686 32.472 18.3078 32.3598 18.417 32.221L17.5 31.5ZM11.361 7.86566L10.5 7.07466L11.361 7.86099V7.86566ZM23.639 7.86566L24.5 7.07699L23.639 7.86333V7.86566ZM18.6667 35V1.16666H16.3333V35H18.6667ZM18.417 30.779L11.704 22.2367L9.87 23.6787L16.583 32.2233L18.417 30.7813V30.779ZM12.2197 8.65199L18.3633 1.95533L16.639 0.377995L10.5 7.07466L12.2197 8.65199ZM16.639 1.95533L22.7803 8.65199L24.5 7.07699L18.361 0.380329L16.6367 1.953L16.639 1.95533ZM23.296 22.2343L16.583 30.779L18.417 32.221L25.13 23.6787L23.296 22.2343ZM22.7803 8.65433C24.4616 10.4898 25.4362 12.8628 25.5302 15.3501C25.6242 17.8374 24.8316 20.2772 23.2937 22.2343L25.13 23.6787C27.0098 21.2862 27.9783 18.3014 27.863 15.261C27.7476 12.2206 26.5557 9.32009 24.5 7.07699L22.7803 8.65199V8.65433ZM11.704 22.2367C10.1664 20.2793 9.37414 17.837 9.46859 15.3497C9.56304 12.8623 10.538 10.4895 12.2197 8.65433L10.5 7.07466C8.44431 9.31775 7.25244 12.2183 7.13705 15.2586C7.02165 18.299 7.99024 21.2815 9.87 23.674L11.704 22.232V22.2367Z" fill="#1E1E1E"/>
</g>
<defs>
<clipPath id="clip0_101_16">
<rect width="35" height="35" fill="white"/>
</clipPath>
</defs>
</svg>
