<svg width="35" height="35" viewBox="0 0 35 35" fill="none" xmlns="http://www.w3.org/2000/svg">
<path d="M28.7626 33.7452L28.7965 33.6524C28.8296 33.5802 28.8564 33.5031 28.8764 33.4226V33.4152C28.9847 33.0323 29.0076 32.6258 28.9562 32.2178V32.2326C28.9 31.8007 28.7839 31.387 28.6139 31.0131L28.6248 31.0278L20.8651 12.6559L19.6804 9.87081L10.759 31.0278C10.6048 31.396 10.5085 31.7952 10.4571 32.209V32.2326C10.3948 32.7083 10.4341 33.1914 10.5763 33.6362L10.5709 33.6214C10.5884 33.6907 10.6168 33.7525 10.6453 33.8203L10.6398 33.8129C10.8739 34.3505 11.3694 34.9941 12.4632 34.9941H26.8998C27.1273 34.9941 28.2496 34.9323 28.7681 33.7437L28.7626 33.7452ZM19.6815 15.4498L26.7685 32.2341H12.6L19.6815 15.4498ZM34.63 31.0308L24.3982 6.76022C24.2899 6.49954 23.7036 5.21082 22.6721 5.21082C22.2105 5.21082 21.5498 5.47888 21.0083 6.75286L19.687 9.87523L20.8607 12.6677L22.6841 8.31847L32.8077 32.2444H28.9562C29.0076 32.6435 28.9792 33.05 28.8764 33.4329V33.4182C28.8534 33.5021 28.8304 33.5876 28.7965 33.6642V33.6568L28.7626 33.7496C28.2441 34.9381 27.1273 35 26.9107 35H32.9324C33.1544 35 34.2658 34.9381 34.7842 33.7496C35.0183 33.2046 35.1769 32.3003 34.63 31.0337V31.0308ZM10.6518 33.8144L10.5829 33.6303V33.6229C10.4397 33.1818 10.396 32.6937 10.4571 32.2193V32.2326L2.18436 32.2341L14.4792 3.10764L18.5122 12.6574L19.6859 9.87228L16.1648 1.52584C16.0674 1.28871 15.4757 0 14.4497 0C13.988 0 13.3219 0.268053 12.7859 1.5494L0.332482 31.0293C0.224191 31.2826 -0.288822 32.617 0.224191 33.8055C0.458274 34.3505 0.953786 34.9867 2.04763 34.9867H12.4731C11.3902 34.9867 10.8837 34.3579 10.6496 33.8055L10.6518 33.8144Z" fill="#1E1E1E"/>
</svg>
