<svg width="35" height="35" viewBox="0 0 35 35" fill="none" xmlns="http://www.w3.org/2000/svg">
<path fill-rule="evenodd" clip-rule="evenodd" d="M12.4017 4.28633C11.4683 4.01566 10.78 4.088 10.2783 4.361C9.77433 4.63166 9.33567 5.17066 9.051 6.09933C8.76633 7.035 8.67067 8.28333 8.80833 9.79066C8.83167 10.0357 8.85967 10.2853 8.89467 10.5397C10.1818 10.2166 11.4879 9.9742 12.8053 9.814C13.7053 8.54317 14.6998 7.34199 15.7803 6.22066C15.7292 6.17914 15.6779 6.13791 15.6263 6.097C14.441 5.159 13.3397 4.557 12.4017 4.28633ZM17.5 4.613C17.36 4.49633 17.2177 4.37966 17.0753 4.26766C15.7407 3.213 14.3733 2.42666 13.0527 2.044C11.7227 1.659 10.3623 1.659 9.16533 2.31C7.96833 2.95866 7.22167 4.09966 6.82033 5.42266C6.419 6.73866 6.33033 8.31133 6.48433 10.0077C6.52167 10.4043 6.57067 10.8103 6.636 11.228C6.23933 11.368 5.85667 11.5197 5.49267 11.676C3.927 12.3457 2.58533 13.174 1.61933 14.154C0.648667 15.1363 0 16.3333 0 17.696C0 19.0563 0.648667 20.2557 1.61933 21.2403C2.58533 22.2203 3.927 23.0463 5.49267 23.7183C5.85667 23.8747 6.23933 24.024 6.636 24.1663C6.57309 24.5715 6.52251 24.9784 6.48433 25.3867C6.33033 27.0807 6.419 28.6533 6.82033 29.9717C7.22167 31.2947 7.96833 32.4357 9.16533 33.082C10.3623 33.7307 11.725 33.733 13.0527 33.348C14.3733 32.963 15.7407 32.1813 17.0753 31.1243L17.5 30.7767C17.64 30.8957 17.7823 31.01 17.9247 31.1243C19.2593 32.179 20.6267 32.963 21.9473 33.348C23.275 33.733 24.6377 33.7307 25.8347 33.082C27.0317 32.4357 27.7783 31.2947 28.1797 29.9717C28.581 28.6557 28.6697 27.0807 28.5157 25.3867C28.4776 24.9784 28.427 24.5715 28.364 24.1663C28.7498 24.0293 29.1311 23.8799 29.5073 23.7183C31.073 23.0463 32.4147 22.218 33.3807 21.2403C34.3513 20.2557 35 19.0563 35 17.6937C35 16.3357 34.3513 15.1363 33.3807 14.1517C32.4147 13.1717 31.073 12.3433 29.5073 11.6737C29.1308 11.5128 28.7495 11.3634 28.364 11.2257C28.427 10.808 28.4783 10.402 28.5157 10.0053C28.6697 8.309 28.581 6.73866 28.1797 5.42033C27.7783 4.09733 27.0317 2.95633 25.8347 2.30766C24.64 1.659 23.275 1.659 21.9473 2.044C20.6267 2.42666 19.2593 3.21066 17.9247 4.26766L17.5 4.61533V4.613ZM17.5 7.798C16.975 8.33466 16.45 8.925 15.932 9.55966C16.9769 9.5183 18.0231 9.5183 19.068 9.55966C18.5717 8.94952 18.0485 8.36172 17.5 7.798ZM22.1947 9.814C21.238 8.47466 20.2347 7.266 19.2197 6.22066L19.3713 6.097C20.5613 5.159 21.658 4.557 22.5983 4.28633C23.5293 4.01566 24.22 4.088 24.7217 4.361C25.2257 4.63166 25.6643 5.17066 25.9467 6.09933C26.2313 7.035 26.3293 8.28333 26.1917 9.79066C26.1683 10.0357 26.1403 10.2853 26.1053 10.5373C24.8181 10.215 23.512 9.97344 22.1947 9.814ZM20.881 12.0167C18.6319 11.8072 16.3681 11.8072 14.119 12.0167C12.9175 13.814 11.8781 15.7146 11.0133 17.696C11.8782 19.6762 12.9167 21.5759 14.1167 23.373C16.3674 23.5826 18.6326 23.5826 20.8833 23.373C22.0839 21.5763 23.1224 19.6765 23.9867 17.696C23.1219 15.715 22.0811 13.8145 20.881 12.0167ZM25.137 14.672C24.7508 13.9156 24.3407 13.1717 23.9073 12.4413C24.514 12.558 25.0997 12.6887 25.662 12.8333C25.515 13.4307 25.34 14.0467 25.137 14.672ZM25.137 20.7177C24.7514 21.4751 24.3413 22.2198 23.9073 22.9507C24.514 22.834 25.0997 22.7033 25.662 22.5563C25.5085 21.9375 25.3334 21.3242 25.137 20.7177ZM27.8903 21.854C27.5278 20.4385 27.0694 19.0493 26.5183 17.696C27.0923 16.2727 27.552 14.875 27.8903 13.538C28.1307 13.6267 28.364 13.7223 28.5903 13.818C29.981 14.4153 31.0333 15.0943 31.7193 15.7897C32.4007 16.4803 32.6667 17.1243 32.6667 17.696C32.6667 18.2677 32.4007 18.9093 31.7193 19.6C31.0333 20.2977 29.981 20.9767 28.5903 21.574C28.359 21.6724 28.1257 21.7657 27.8903 21.854ZM26.1053 24.8523C24.8183 25.1759 23.5121 25.4183 22.1947 25.578C21.238 26.9173 20.2347 28.1237 19.2197 29.1713L19.3737 29.2927C20.559 30.233 21.6603 30.8327 22.5983 31.1057C23.5293 31.3763 24.22 31.304 24.7217 31.031C25.2257 30.758 25.6643 30.219 25.9467 29.2903C26.2337 28.357 26.3293 27.1063 26.1917 25.599C26.1683 25.3495 26.1395 25.1006 26.1053 24.8523ZM17.5 27.594C18.025 27.0573 18.55 26.467 19.068 25.8323C18.0231 25.8738 16.9769 25.8738 15.932 25.8323C16.45 26.467 16.975 27.055 17.5 27.594ZM11.0927 22.9507C10.6589 22.2197 10.2488 21.475 9.863 20.7177C9.66 21.3477 9.485 21.959 9.338 22.5563C9.898 22.7033 10.486 22.834 11.0927 22.9507ZM8.89467 24.8523C10.1817 25.1759 11.4879 25.4183 12.8053 25.578C13.762 26.9173 14.763 28.1237 15.7803 29.1713C15.7293 29.2121 15.6779 29.2525 15.6263 29.2927C14.441 30.233 13.3397 30.8327 12.4017 31.1057C11.4683 31.3763 10.78 31.304 10.276 31.031C9.772 30.758 9.33567 30.219 9.051 29.2903C8.76633 28.357 8.67067 27.1063 8.80833 25.599C8.83174 25.3495 8.86053 25.1006 8.89467 24.8523ZM7.10967 21.854C7.448 20.5147 7.90533 19.1193 8.48167 17.696C7.93056 16.3427 7.47217 14.9535 7.10967 13.538C6.87458 13.6269 6.64121 13.7202 6.40967 13.818C5.019 14.4153 3.96667 15.0943 3.28067 15.7897C2.59933 16.4803 2.33333 17.1243 2.33333 17.696C2.33333 18.2677 2.59933 18.9093 3.28067 19.6C3.96667 20.2977 5.019 20.9767 6.40967 21.574C6.636 21.6697 6.86933 21.763 7.10967 21.854ZM9.338 12.8357C9.485 13.4307 9.66 14.0467 9.863 14.672C10.2491 13.9156 10.6592 13.1716 11.0927 12.4413C10.486 12.558 9.90033 12.6887 9.338 12.8357ZM14 17.696C14 16.7677 14.3687 15.8775 15.0251 15.2211C15.6815 14.5647 16.5717 14.196 17.5 14.196C18.4283 14.196 19.3185 14.5647 19.9749 15.2211C20.6313 15.8775 21 16.7677 21 17.696C21 18.6243 20.6313 19.5145 19.9749 20.1709C19.3185 20.8272 18.4283 21.196 17.5 21.196C16.5717 21.196 15.6815 20.8272 15.0251 20.1709C14.3687 19.5145 14 18.6243 14 17.696ZM17.5 16.5293C17.1906 16.5293 16.8938 16.6522 16.675 16.871C16.4562 17.0898 16.3333 17.3866 16.3333 17.696C16.3333 18.0054 16.4562 18.3022 16.675 18.521C16.8938 18.7397 17.1906 18.8627 17.5 18.8627C17.8094 18.8627 18.1062 18.7397 18.325 18.521C18.5437 18.3022 18.6667 18.0054 18.6667 17.696C18.6667 17.3866 18.5437 17.0898 18.325 16.871C18.1062 16.6522 17.8094 16.5293 17.5 16.5293Z" fill="#1E1E1E"/>
</svg>
