<svg xmlns="http://www.w3.org/2000/svg" width="35" height="35" fill="none">
  <path stroke="#1E1E1E" stroke-linejoin="round" stroke-width="2" d="M17.333 7c-4.356 0-7.077 2.333-8.166 7 1.633-2.333 3.54-3.208 5.716-2.625 1.244.334 2.13 1.3 3.113 2.368 1.603 1.741 3.456 3.757 7.504 3.757 4.356 0 7.077-2.333 8.167-7-1.634 2.333-3.54 3.208-5.717 2.625-1.244-.334-2.13-1.3-3.113-2.368C23.234 9.016 21.382 7 17.333 7ZM9.167 17.5c-4.357 0-7.077 2.333-8.167 7 1.633-2.333 3.54-3.208 5.717-2.625 1.243.334 2.13 1.3 3.112 2.368C11.432 25.984 13.285 28 17.333 28c4.357 0 7.077-2.333 8.167-7-1.633 2.333-3.54 3.208-5.717 2.625-1.243-.334-2.13-1.3-3.112-2.368-1.603-1.741-3.456-3.757-7.504-3.757Z"/>
</svg>
