<svg width="35" height="35" viewBox="0 0 35 35" fill="none" xmlns="http://www.w3.org/2000/svg">
<path d="M17.5 7C13.1437 7 10.423 9.33333 9.33333 14C10.9667 11.6667 12.873 10.7917 15.05 11.375C16.2937 11.7087 17.1803 12.6747 18.1627 13.7433C19.7657 15.484 21.6183 17.5 25.6667 17.5C30.023 17.5 32.7437 15.1667 33.8333 10.5C32.2 12.8333 30.2937 13.7083 28.1167 13.125C26.873 12.7913 25.9863 11.8253 25.004 10.7567C23.401 9.016 21.5483 7 17.5 7ZM9.33333 17.5C4.977 17.5 2.25633 19.8333 1.16667 24.5C2.8 22.1667 4.70633 21.2917 6.88333 21.875C8.127 22.2087 9.01367 23.1747 9.996 24.2433C11.599 25.984 13.4517 28 17.5 28C21.8563 28 24.577 25.6667 25.6667 21C24.0333 23.3333 22.127 24.2083 19.95 23.625C18.7063 23.2913 17.8197 22.3253 16.8373 21.2567C15.2343 19.516 13.3817 17.5 9.33333 17.5Z" stroke="#1E1E1E" stroke-width="2" stroke-linejoin="round"/>
<rect width="35" height="35" stroke="#1E1E1E"/>
</svg>
