<svg width="35" height="35" viewBox="0 0 35 35" fill="none" xmlns="http://www.w3.org/2000/svg">
<g clip-path="url(#clip0_120_4)">
<path d="M29.1667 18.6667V18.277C29.1667 16.5597 27.7737 15.1667 26.0563 15.1667H23.3333C22.4051 15.1667 21.5148 15.5354 20.8585 16.1918C20.2021 16.8482 19.8333 17.7384 19.8333 18.6667C19.8333 19.5949 20.2021 20.4852 20.8585 21.1415C21.5148 21.7979 22.4051 22.1667 23.3333 22.1667H25.6667C26.5949 22.1667 27.4852 22.5354 28.1415 23.1918C28.7979 23.8482 29.1667 24.7384 29.1667 25.6667C29.1667 26.5949 28.7979 27.4852 28.1415 28.1415C27.4852 28.7979 26.5949 29.1667 25.6667 29.1667H23.3333C22.4051 29.1667 21.5148 28.7979 20.8585 28.1415C20.2021 27.4852 19.8333 26.5949 19.8333 25.6667M18.6667 15.1667H7M12.8333 15.1667V30.3333M1.16666 1.16666H33.8333V33.8333H1.16666V1.16666Z" stroke="#1E1E1E" stroke-width="2"/>
</g>
<defs>
<clipPath id="clip0_120_4">
<rect width="35" height="35" fill="white"/>
</clipPath>
</defs>
</svg>
