<svg width="43" height="43" viewBox="0 0 43 43" fill="none" xmlns="http://www.w3.org/2000/svg">
<path d="M21.5 10.75C16.7162 10.75 13.7421 13.1329 12.5417 17.9167C14.3333 15.5337 16.4296 14.6379 18.8125 15.2292C20.1742 15.5696 21.1596 16.555 22.2346 17.6479C23.9904 19.4396 25.9792 21.5 30.4583 21.5C35.2421 21.5 38.2162 19.1171 39.4167 14.3333C37.625 16.7162 35.5287 17.6121 33.1458 17.0208C31.7842 16.6804 30.8167 15.695 29.7237 14.6021C27.9679 12.8104 25.9792 10.75 21.5 10.75ZM12.5417 21.5C7.75791 21.5 4.78374 23.8829 3.58333 28.6667C5.37499 26.2837 7.47124 25.3879 9.85416 25.9792C11.2158 26.3196 12.1833 27.305 13.2762 28.3979C15.0321 30.1896 17.0208 32.25 21.5 32.25C26.2837 32.25 29.2579 29.8671 30.4583 25.0833C28.6667 27.4662 26.5704 28.3621 24.1875 27.7708C22.8258 27.4304 21.8583 26.445 20.7654 25.3521C19.0096 23.5604 17.0208 21.5 12.5417 21.5Z" fill="black"/>
</svg>
