<svg width="26" height="26" viewBox="0 0 26 26" fill="none" xmlns="http://www.w3.org/2000/svg">
<g clip-path="url(#clip0_101_22)">
<path fill-rule="evenodd" clip-rule="evenodd" d="M3.7417e-07 12.9998C8.37402e-05 10.7566 0.580631 8.55153 1.68519 6.5991C2.78975 4.64666 4.38074 3.01327 6.30345 1.85774C8.22616 0.702207 10.4152 0.063867 12.6576 0.00478526C14.9001 -0.0542965 17.1196 0.467891 19.1005 1.52057C21.0814 2.57325 22.7562 4.1206 23.962 6.01217C25.1679 7.90373 25.8637 10.0751 25.9819 12.3152C26.1001 14.5554 25.6367 16.7879 24.6366 18.7959C23.6365 20.8039 22.1339 22.5189 20.2748 23.7742L8.50547 7.29713C8.39883 7.14768 8.24748 7.03597 8.07326 6.97808C7.89903 6.9202 7.71093 6.91913 7.53606 6.97504C7.36119 7.03096 7.20859 7.14095 7.10027 7.28918C6.99195 7.43741 6.93349 7.6162 6.93333 7.79979V20.7998H8.66667V10.5038L18.772 24.6513C16.7898 25.6335 14.5897 26.0936 12.3799 25.9881C10.1702 25.8826 8.02395 25.2149 6.14433 24.0483C4.26471 22.8816 2.71391 21.2546 1.6387 19.3212C0.5635 17.3878 -0.000530334 15.212 3.7417e-07 12.9998ZM17.3333 17.3331V6.93313H19.0667V17.3331H17.3333Z" fill="black"/>
</g>
<defs>
<clipPath id="clip0_101_22">
<rect width="26" height="26" fill="white"/>
</clipPath>
</defs>
</svg>
