<svg width="27" height="27" viewBox="0 0 27 27" fill="none" xmlns="http://www.w3.org/2000/svg">
<path d="M26.1 13.6512C26.1 16.6338 20.4588 19.0512 13.5 19.0512C6.54119 19.0512 0.899994 16.6338 0.899994 13.6512C0.899994 10.6686 6.54119 8.25119 13.5 8.25119C20.4588 8.25119 26.1 10.6686 26.1 13.6512Z" stroke="black"/>
<path d="M7.49879 24.7302C10.1214 26.1522 14.9328 22.3416 18.2484 16.2234C21.5622 10.1034 22.1238 3.99239 19.5012 2.57219C16.8786 1.15019 12.0672 4.96079 8.75159 11.079C5.43779 17.199 4.87619 23.31 7.49879 24.7302Z" stroke="black"/>
<path d="M19.5012 24.7302C16.8786 26.1522 12.0672 22.3416 8.75159 16.2234C5.43779 10.1034 4.87619 3.99239 7.49879 2.57219C10.1214 1.15019 14.9328 4.96079 18.2484 11.079C21.5622 17.199 22.1238 23.31 19.5012 24.7302Z" stroke="black"/>
<path d="M11.7 13.6512C11.7 14.1286 11.8896 14.5864 12.2272 14.924C12.5648 15.2616 13.0226 15.4512 13.5 15.4512C13.9774 15.4512 14.4352 15.2616 14.7728 14.924C15.1104 14.5864 15.3 14.1286 15.3 13.6512C15.3 13.1738 15.1104 12.716 14.7728 12.3784C14.4352 12.0408 13.9774 11.8512 13.5 11.8512C13.0226 11.8512 12.5648 12.0408 12.2272 12.3784C11.8896 12.716 11.7 13.1738 11.7 13.6512Z" stroke="black"/>
</svg>
