<svg width="27" height="27" viewBox="0 0 27 27" fill="none" xmlns="http://www.w3.org/2000/svg">
<g clip-path="url(#clip0_101_30)">
<path d="M4.8906 1.79999H0.9C0.741641 1.79994 0.586074 1.84168 0.449005 1.92099C0.311937 2.00029 0.19822 2.11436 0.119338 2.25168C0.0404557 2.38899 -0.000799419 2.54469 -0.000261842 2.70304C0.000275735 2.8614 0.042587 3.01681 0.1224 3.15359L12.7224 24.7536C12.8016 24.8896 12.9151 25.0024 13.0516 25.0808C13.188 25.1592 13.3426 25.2004 13.5 25.2004C13.6574 25.2004 13.812 25.1592 13.9484 25.0808C14.0849 25.0024 14.1984 24.8896 14.2776 24.7536L26.8776 3.15359C26.9574 3.01681 26.9997 2.8614 27.0003 2.70304C27.0008 2.54469 26.9595 2.38899 26.8807 2.25168C26.8018 2.11436 26.6881 2.00029 26.551 1.92099C26.4139 1.84168 26.2584 1.79994 26.1 1.79999H22.1094L13.5 16.1496L4.8906 1.79999Z" fill="black"/>
<path d="M20.0106 1.79999H14.742L13.5 4.28759L12.2562 1.79999H6.9894L13.5 12.6504L20.0106 1.79999Z" fill="black"/>
</g>
<defs>
<clipPath id="clip0_101_30">
<rect width="27" height="27" fill="white"/>
</clipPath>
</defs>
</svg>
