<svg xmlns="http://www.w3.org/2000/svg" width="35" height="35" fill="none">
  <path fill="#1E1E1E" d="M9.45 12.872 3.896 17.5l5.554 4.628a1.094 1.094 0 1 1-1.4 1.68L1.487 18.34a1.095 1.095 0 0 1 0-1.68l6.563-5.47a1.094 1.094 0 0 1 1.4 1.682Zm24.063 3.787L26.95 11.19a1.093 1.093 0 0 0-1.4 1.682l5.553 4.628-5.553 4.628a1.094 1.094 0 1 0 1.4 1.68l6.563-5.468a1.096 1.096 0 0 0 0-1.68ZM22.248 4.441a1.093 1.093 0 0 0-1.401.655l-8.75 24.062a1.092 1.092 0 0 0 1.656 1.269c.184-.129.323-.311.4-.523l8.75-24.062a1.094 1.094 0 0 0-.655-1.401Z"/>
</svg>
