<svg xmlns="http://www.w3.org/2000/svg" width="35" height="35" fill="none">
  <path fill="#000" d="M31.317 7.368a4.5 4.5 0 0 0-3.685-3.685c-4.425-.75-12.768-1.094-18.904 5.045-6.136 6.139-5.795 14.479-5.045 18.904a4.5 4.5 0 0 0 3.692 3.685c1.55.264 3.12.399 4.693.402 4.388 0 9.85-1.094 14.204-5.447 6.137-6.136 5.795-14.479 5.045-18.904Zm-8.424-1.914c1.467.005 2.93.133 4.375.383a2.316 2.316 0 0 1 1.894 1.896 25.78 25.78 0 0 1 .37 4.952l-7.218-7.216c.191-.011.381-.014.58-.014v-.001ZM7.733 29.162a2.316 2.316 0 0 1-1.895-1.895 25.784 25.784 0 0 1-.37-4.952l7.217 7.216a25.667 25.667 0 0 1-4.952-.369Zm16.994-4.435c-1.587 1.586-4.549 3.791-9.21 4.549l-9.793-9.792c.758-4.662 2.963-7.624 4.549-9.211 1.586-1.587 4.547-3.793 9.21-4.55l9.793 9.793c-.758 4.662-2.963 7.624-4.55 9.211Zm-2.08-12.373a1.094 1.094 0 0 1 0 1.546l-1.961 1.96.866.866a1.094 1.094 0 1 1-1.546 1.545l-.865-.865-1.735 1.735.867.866a1.095 1.095 0 1 1-1.546 1.547l-.868-.868-1.96 1.96a1.094 1.094 0 1 1-1.546-1.546l1.961-1.96-.866-.866a1.093 1.093 0 0 1 1.546-1.545l.867.867 1.733-1.737-.867-.866a1.094 1.094 0 0 1 1.546-1.547l.868.868 1.96-1.96a1.094 1.094 0 0 1 1.545 0Z"/>
</svg>
