<svg xmlns="http://www.w3.org/2000/svg" width="35" height="35" fill="none">
  <path stroke="#1E1E1E" stroke-width="2" d="M16.77 10.208a3.646 3.646 0 1 0 0-7.291 3.646 3.646 0 0 0 0 7.291Z"/>
  <path stroke="#1E1E1E" stroke-linecap="round" stroke-width="2" d="M13.125 25.52 8.75 32.084"/>
  <path fill="#1E1E1E" d="M28.408 16.152a1.094 1.094 0 0 0-1.4-1.68l1.4 1.68ZM19.911 32.18a1.096 1.096 0 0 0 1.6.883 1.094 1.094 0 0 0 .578-1.077l-2.178.194ZM22.33 17.9l-.373 1.027.375-1.027h-.002Zm-4.477-2.883-.354 1.035.353-1.035h.001Zm-3.812 1.273-.236 2.365 2.176.218.236-2.366-2.176-.217Zm5.679 1.08.118.1 1.4-1.682-.118-.099-1.4 1.682Zm7.105.1 1.582-1.319-1.4-1.68-1.582 1.317 1.4 1.682ZM19.66 29.356l.25 2.824 2.18-.194-.252-2.824-2.178.194Zm.18-11.885c.808.674 1.418 1.2 2.118 1.457l.75-2.055c-.254-.092-.522-.295-1.469-1.084l-1.4 1.682Zm5.586-1.682c-.945.788-1.213.992-1.468 1.084l.75 2.055c.7-.257 1.309-.783 2.118-1.457l-1.4-1.682Zm-3.468 3.139a4.01 4.01 0 0 0 2.75 0l-.75-2.055a1.823 1.823 0 0 1-1.25 0l-.75 2.055Zm-4.585-2.93-.013-.005a1.07 1.07 0 0 1-.666-.525 1.095 1.095 0 0 1-.068-.911 1.094 1.094 0 0 0 .609 1.399l.077.03.188.067.707-2.07a4.695 4.695 0 0 1-.118-.041l.012.004.035.018a1.09 1.09 0 0 1-.034 1.973l-.064.026a.992.992 0 0 0 .05-.02c.02-.01.084-.037.16-.087a1.085 1.085 0 0 0 .496-.946 1.094 1.094 0 0 0-.645-.968c-.06-.027-.109-.041-.12-.046a1.12 1.12 0 0 0-.041-.011l-.028-.008-.012-.002-.525 2.123Zm3.748-.306a10.615 10.615 0 0 0-.837-.657l-1.248 1.794c.214.152.347.261.685.543l1.4-1.682v.002Zm-3.621.36c.432.147 1.16.516 1.536.777l1.248-1.795a9.892 9.892 0 0 0-2.077-1.053l-.707 2.072v-.001Zm-.846 8.404c1.374.86 1.833 1.165 2.154 1.562l1.704-1.372c-.606-.753-1.456-1.268-2.698-2.045l-1.161 1.855h.001Zm5.184 4.706c-.13-1.461-.204-2.451-.6-3.334l-1.995.9c.21.467.272 1.014.417 2.628l2.178-.194Zm-3.03-3.144c.175.217.321.457.435.71l1.995-.9a5.483 5.483 0 0 0-.726-1.182l-1.704 1.372Zm-5.002-7.364c-.117 1.17-.229 2.07.032 2.903l2.087-.653c-.095-.304-.079-.668.058-2.032l-2.177-.218Zm4.006 3.949c-1.16-.725-1.458-.938-1.642-1.2l-1.794 1.252c.5.715 1.28 1.18 2.277 1.801l1.16-1.853Zm-3.974-1.046c.123.392.305.764.54 1.101l1.794-1.256a1.823 1.823 0 0 1-.247-.498l-2.087.653Zm2.38-5.049c.022-.213.034-.318.047-.395.01-.057.016-.068.02-.079l-1.989-.91c-.19.417-.219.813-.254 1.167l2.176.217Zm1.68-2.635a15.375 15.375 0 0 0-.764-.178 2.663 2.663 0 0 0-.736-.052l.19 2.178c-.03.003-.008-.004.135.022.146.03.338.076.65.153l.525-2.123Zm-1.613 2.161c-.01.024-.01.014.02-.02a.732.732 0 0 1 .256-.18c.04-.017.05-.015.026-.013l-.191-2.178c-.445.05-.87.217-1.232.48-.372.253-.67.598-.868 1.001l1.99.91Z"/>
  <path stroke="#1E1E1E" stroke-linecap="round" stroke-width="2" d="M27.708 32.083V11.667m-16.041 2.916-2.439.813a2.832 2.832 0 0 0-1.936 2.687 1.415 1.415 0 0 0 .783 1.266l3.592 1.797"/>
</svg>
