<svg xmlns="http://www.w3.org/2000/svg" width="35" height="35" fill="none">
  <g clip-path="url(#a)">
    <path fill="#1E1E1E" d="M17.5 2.917c8.054 0 14.583 6.529 14.583 14.583A14.556 14.556 0 0 1 26.6 28.895l-.349.272h2.916a1.458 1.458 0 0 1 .17 2.906l-.17.01H17.5c-8.054 0-14.583-6.529-14.583-14.583S9.446 2.917 17.5 2.917Zm0 2.916a11.667 11.667 0 1 0 0 23.334 11.667 11.667 0 0 0 0-23.334Zm0 14.584a2.916 2.916 0 1 1 0 5.833 2.916 2.916 0 0 1 0-5.833Zm-5.833-5.834a2.917 2.917 0 1 1 0 5.834 2.917 2.917 0 0 1 0-5.834Zm11.666 0a2.917 2.917 0 1 1 0 5.833 2.917 2.917 0 0 1 0-5.833ZM17.5 8.75a2.917 2.917 0 1 1 0 5.833 2.917 2.917 0 0 1 0-5.833Z"/>
    <path stroke="#1E1E1E" d="M17.5 2.917c8.054 0 14.583 6.529 14.583 14.583A14.556 14.556 0 0 1 26.6 28.895l-.349.272h2.916a1.458 1.458 0 0 1 .17 2.906l-.17.01H17.5c-8.054 0-14.583-6.529-14.583-14.583S9.446 2.917 17.5 2.917Zm0 2.916a11.667 11.667 0 1 0 0 23.334 11.667 11.667 0 0 0 0-23.334Zm0 14.584a2.916 2.916 0 1 1 0 5.833 2.916 2.916 0 0 1 0-5.833Zm-5.833-5.834a2.917 2.917 0 1 1 0 5.834 2.917 2.917 0 0 1 0-5.834Zm11.666 0a2.917 2.917 0 1 1 0 5.833 2.917 2.917 0 0 1 0-5.833ZM17.5 8.75a2.917 2.917 0 1 1 0 5.833 2.917 2.917 0 0 1 0-5.833Z"/>
  </g>
  <defs>
    <clipPath id="a">
      <path fill="#fff" d="M0 0h35v35H0z"/>
    </clipPath>
  </defs>
</svg>
