<svg xmlns="http://www.w3.org/2000/svg" width="35" height="35" fill="none">
  <path fill="#1E1E1E" stroke="#1E1E1E" stroke-width=".2" d="m17.414 7.367.083.126.084-.126a6.455 6.455 0 0 1 5.388-2.892h10.937a.994.994 0 0 1 .994.994v21.966a.996.996 0 0 1-1 .994l-11.203-.075a4.476 4.476 0 0 0-3.195 1.31l-1.298 1.299a.993.993 0 0 1-1.406 0l-1.316-1.314a4.47 4.47 0 0 0-3.163-1.312H1.094a.994.994 0 0 1-.994-.993V5.469a.994.994 0 0 1 .994-.994h10.933a6.455 6.455 0 0 1 5.387 2.892Zm1.08 20.315v.207l.162-.128a6.467 6.467 0 0 1 4.054-1.395l10.102.069h.1V6.462H22.97a4.475 4.475 0 0 0-4.475 4.476v16.744Zm-1.992-16.749a4.475 4.475 0 0 0-4.475-4.47h-9.94V26.35H12.32c1.461 0 2.88.497 4.025 1.407l.162.13v-.208l-.004-16.746Z"/>
</svg>
