<svg xmlns="http://www.w3.org/2000/svg" width="35" height="35" fill="none">
  <g clip-path="url(#a)">
    <path fill="#1E1E1E" d="M8.476 15.09c.148 0 .314.023.496.068.182.046.364.109.547.188.182.08.364.154.547.223.182.068.347.136.495.205l-.273.034a2.342 2.342 0 0 1-.29.017c-.194 0-.371-.029-.53-.086a2.025 2.025 0 0 1-.445-.222 1.728 1.728 0 0 0-.41-.205 3.176 3.176 0 0 0-.376-.102.678.678 0 0 0-.308.068 3.274 3.274 0 0 0-.273.154c0-.046-.04-.069-.12-.069.08-.08.228-.142.445-.188.216-.045.381-.074.495-.085Zm2.307.769c.468 0 .895.08 1.282.24a3.46 3.46 0 0 1-.974.205 2.54 2.54 0 0 1-.615-.069c.057-.091.114-.148.17-.17.058-.024.103-.092.137-.206ZM17.5-.001c1.606 0 3.15.211 4.631.633a18.266 18.266 0 0 1 4.17 1.76 16.881 16.881 0 0 1 3.555 2.752A18.038 18.038 0 0 1 32.59 8.68a17.96 17.96 0 0 1 1.777 4.17c.433 1.504.644 3.054.633 4.649 0 1.606-.211 3.15-.633 4.631a18.266 18.266 0 0 1-1.76 4.17 16.884 16.884 0 0 1-2.751 3.555 18.035 18.035 0 0 1-3.538 2.734 17.96 17.96 0 0 1-4.17 1.777A16.292 16.292 0 0 1 17.5 35c-1.607 0-3.15-.211-4.632-.633a18.266 18.266 0 0 1-4.17-1.76 16.882 16.882 0 0 1-3.554-2.751 18.04 18.04 0 0 1-2.735-3.538 17.959 17.959 0 0 1-1.777-4.17A16.294 16.294 0 0 1 0 17.5c0-1.607.21-3.15.632-4.632a18.267 18.267 0 0 1 1.76-4.17 16.882 16.882 0 0 1 2.752-3.554A18.038 18.038 0 0 1 8.68 2.409a17.96 17.96 0 0 1 4.17-1.777A16.294 16.294 0 0 1 17.5 0Zm13.022 9.486c-.16-.251-.319-.49-.478-.718-.16-.228-.325-.462-.496-.7a.599.599 0 0 1-.085.221c-.035.046-.057.148-.069.308 0 .102.04.2.12.29a1.866 1.866 0 0 0 .683.479c.126.045.234.085.325.12Zm-1.18-1.675c0 .09-.016.154-.05.188h.102c.046 0 .08.005.103.017l-.154-.205ZM17.5 32.812c1.299 0 2.569-.165 3.81-.495a15.768 15.768 0 0 0 3.521-1.402 15.297 15.297 0 0 0 3.076-2.221 15.697 15.697 0 0 0 2.478-2.94 28.52 28.52 0 0 1-.427-1.042 3.003 3.003 0 0 1-.205-1.094c0-.41.017-.74.051-.991.035-.251.074-.473.12-.667.046-.194.068-.359.068-.495 0-.137-.017-.314-.05-.53a1.877 1.877 0 0 0-.291-.701c-.16-.25-.37-.604-.633-1.06.012-.08.029-.188.052-.324l.068-.428c.023-.148.028-.284.017-.41a.905.905 0 0 0-.085-.324 5.758 5.758 0 0 1-.923-.188 2.7 2.7 0 0 1-.855-.41l.103-.086c-.148.034-.296.08-.445.137-.148.057-.29.12-.427.188a1.442 1.442 0 0 1-.444.136l-.462.069-.273-.034.051-.12c-.16.046-.33.103-.512.17a1.504 1.504 0 0 1-.53.104c-.114 0-.28-.04-.496-.12a5.402 5.402 0 0 1-.65-.29 3.642 3.642 0 0 1-.58-.377c-.171-.136-.257-.267-.257-.393l.034-.051a.92.92 0 0 0-.222-.188 5.004 5.004 0 0 1-.256-.17 1.76 1.76 0 0 1-.222-.189.275.275 0 0 1-.086-.24l.188-.153-.393-.051-.137-.513c.023.057.075.08.154.068a.406.406 0 0 0 .188-.068l-.615-.325.427-1.093c-.16-.593-.2-1.049-.12-1.368.08-.319.234-.58.462-.786.228-.205.479-.41.752-.615.273-.205.553-.484.837-.837l-.05-.205 1.127-1.368.257-.034c.319 0 .677-.011 1.076-.034.399-.023.803-.063 1.213-.12l1.214-.17a8.805 8.805 0 0 0 1.094-.223 16.778 16.778 0 0 0-1.145-1.23A15.193 15.193 0 0 0 26.865 5.4c-.125.046-.28.108-.461.188a3.31 3.31 0 0 0-.547.308 1.641 1.641 0 0 0-.428.41 1.072 1.072 0 0 0-.188.461l.103.325c-.205.33-.433.535-.684.615-.25.08-.507.125-.769.137a9.84 9.84 0 0 1-.82 0 1.847 1.847 0 0 0-.82.154l-.274-.581.256-.992-.29-.427 2.957-.923a1.367 1.367 0 0 0-.616-.717 1.89 1.89 0 0 0-.94-.24v-.17l.957-.154a15.663 15.663 0 0 0-3.298-1.197 14.96 14.96 0 0 0-3.503-.41c-.992 0-1.971.097-2.94.29-.968.194-1.902.473-2.803.838-.9.365-1.771.82-2.614 1.367a14.638 14.638 0 0 0-2.307 1.846c.296 0 .524.074.683.222.16.148.308.313.445.496.136.182.279.347.427.495.148.148.347.228.598.24l.273-.205-.034-.376.564-.804-.444-1.264a4.85 4.85 0 0 0 .256-.171c.114-.08.21-.12.29-.12.342 0 .604.017.787.051.182.035.342.097.478.188.137.092.257.223.36.393.102.171.261.388.478.65l.615-.479.547.223c.25.102.507.227.769.376a4 4 0 0 1 .666.46c.183.16.28.309.29.445 0 .171-.062.308-.187.41-.125.103-.29.188-.496.257-.205.068-.415.12-.632.154a6.58 6.58 0 0 0-.65.136 2.693 2.693 0 0 0-.495.171.372.372 0 0 0-.205.29l.991.325c-.228.194-.473.37-.735.53-.262.16-.535.308-.82.445l.068.29-1.572.615v.479l-.12.051.086-.598-.069-.017c-.08 0-.125.017-.136.051a.379.379 0 0 0-.017.12c0 .045.011.09.034.136.023.046.028.08.017.103l-.222-.12.034.069c0 .034.017.085.051.154.034.068.08.13.137.188a.897.897 0 0 1 .137.17c.034.057.057.086.068.086 0 .034-.023.068-.068.102a.386.386 0 0 1-.171.069c-.069.011-.114.028-.137.051-.023.023-.023.029 0 .017.16 0 .194.012.103.034-.092.023-.234.08-.428.171-.193.091-.37.222-.53.393-.159.171-.25.422-.273.752 0 .194.006.382.017.564.012.182.006.37-.017.564-.16-.433-.399-.763-.718-.991-.319-.228-.706-.342-1.162-.342l-.735.069.36.239a93.349 93.349 0 0 0-.599-.069 3.884 3.884 0 0 0-.632-.017c-.217.012-.41.057-.581.137-.171.08-.342.2-.513.359l-.103.769c0 .365.08.66.24.889.16.228.438.347.837.359.342 0 .678-.052 1.008-.154.33-.103.656-.222.975-.36a6.94 6.94 0 0 1-.342.719 2.688 2.688 0 0 0-.274.752l.223.102c.273-.182.524-.21.751-.085.228.125.45.307.667.547l.666.734c.228.251.473.433.735.547l-.58.308-1.368-.77a.625.625 0 0 1 .034.155c.012.08.006.096-.017.05l-.615-1.042a5.516 5.516 0 0 1-1.162-.17 10.28 10.28 0 0 1-2.427-.974 9.574 9.574 0 0 1-1.008-.65l-.12 1.829c0 1.39.188 2.745.564 4.067a15.891 15.891 0 0 0 1.59 3.726 14.917 14.917 0 0 0 2.512 3.178c.99.957 2.09 1.772 3.298 2.444a1.698 1.698 0 0 1-.017-.718c.046-.239.102-.478.17-.717.07-.24.143-.479.223-.718.08-.24.12-.484.12-.735 0-.365-.057-.746-.171-1.145a13.82 13.82 0 0 0-.41-1.213c-.16-.41-.337-.815-.53-1.214a8.748 8.748 0 0 1-.462-1.128 11.065 11.065 0 0 1-.273-.99c-.068-.308-.034-.576.102-.804l-.256-.12c.068-.16.16-.313.274-.461.113-.148.233-.296.358-.445a1.739 1.739 0 0 0 .41-.99 1.05 1.05 0 0 0-.068-.36 6.65 6.65 0 0 1-.12-.358l.36.085c.193-.444.455-.746.786-.906.33-.16.746-.245 1.247-.256.057 0 .177.023.36.068.181.046.375.108.58.188.205.08.399.143.581.188.183.046.32.091.41.137 0 .08.046.13.137.154.091.023.143.062.154.12l-.034.136c.034.011.114.051.239.12.125.068.262.154.41.256l.393.273c.114.08.194.143.24.188.204 0 .484.069.837.206.353.136.74.307 1.162.512.422.205.837.45 1.247.735.41.285.798.57 1.163.855.364.284.643.57.837.854.194.285.308.535.342.752l-.581.615c.045.581.005 1.026-.12 1.333a1.844 1.844 0 0 1-.58.77 3.672 3.672 0 0 1-.907.512c-.341.137-.712.33-1.11.581 0 .228-.058.473-.171.735a4.12 4.12 0 0 1-.428.752c-.17.24-.376.439-.615.598-.24.16-.478.24-.718.24l-.717-.548c.022.023.022.063 0 .12-.023.057-.052.068-.086.034.114.217.143.467.085.752a3.91 3.91 0 0 1-.29.872c-.137.296-.29.575-.461.837-.171.262-.325.484-.462.667.615.16 1.23.279 1.846.358.615.08 1.236.12 1.863.12Z"/>
  </g>
  <defs>
    <clipPath id="a">
      <path fill="#fff" d="M0 0h35v35H0z"/>
    </clipPath>
  </defs>
</svg>
