<svg xmlns="http://www.w3.org/2000/svg" width="15" height="15" fill="none">
  <g stroke="#fff" stroke-linecap="round" stroke-linejoin="round" stroke-width="1.5" clip-path="url(#a)">
    <path d="M10 13.767v-1.794a2.107 2.107 0 0 0-.588-1.631c1.963-.219 4.025-.963 4.025-4.375a3.4 3.4 0 0 0-.937-2.344 3.168 3.168 0 0 0-.056-2.356s-.738-.219-2.444.925a8.362 8.362 0 0 0-4.375 0c-1.706-1.144-2.444-.925-2.444-.925a3.169 3.169 0 0 0-.056 2.356 3.4 3.4 0 0 0-.938 2.363c0 3.387 2.063 4.13 4.026 4.375a2.107 2.107 0 0 0-.588 1.612v1.794"/>
    <path d="M5.625 12.517c-1.875.608-3.438 0-4.375-1.875"/>
  </g>
  <defs>
    <clipPath id="a">
      <path fill="#fff" d="M0 0h15v15H0z"/>
    </clipPath>
  </defs>
</svg>
