<svg xmlns="http://www.w3.org/2000/svg" width="19" height="15" fill="none">
  <path stroke="#fff" stroke-linecap="round" stroke-linejoin="round" stroke-width="1.3" d="M1 3.167v8.666c0 .575.256 1.126.711 1.532A2.585 2.585 0 0 0 3.43 14H15.57c.644 0 1.262-.228 1.718-.635.455-.406.711-.957.711-1.532V3.167c0-.575-.256-1.126-.711-1.532A2.585 2.585 0 0 0 15.57 1H3.43c-.645 0-1.262.228-1.718.635C1.256 2.04 1 2.592 1 3.167Z" clip-rule="evenodd"/>
  <path stroke="#fff" stroke-linecap="round" stroke-linejoin="round" stroke-width="1.3" d="M3.429 4.25 9.5 7.5l6.071-3.25"/>
</svg>
