<svg width="15" height="15" viewBox="0 0 15 15" fill="none" xmlns="http://www.w3.org/2000/svg">
<path fill-rule="evenodd" clip-rule="evenodd" d="M1 4.5V10.5C1 10.8978 1.19566 11.2794 1.54394 11.5607C1.89223 11.842 2.3646 12 2.85714 12H12.1429C12.6354 12 13.1078 11.842 13.4561 11.5607C13.8043 11.2794 14 10.8978 14 10.5V4.5C14 4.10218 13.8043 3.72064 13.4561 3.43934C13.1078 3.15804 12.6354 3 12.1429 3H2.85714C2.3646 3 1.89223 3.15804 1.54394 3.43934C1.19566 3.72064 1 4.10218 1 4.5Z" stroke="white" stroke-width="1.3" stroke-linecap="round" stroke-linejoin="round"/>
<path d="M3 5L7.5 8L12 5" stroke="white" stroke-width="1.3" stroke-linecap="round" stroke-linejoin="round"/>
</svg>
